<?xml version="1.0" encoding="UTF-8"?>
<svg id="Layer_2" data-name="Layer 2" xmlns="http://www.w3.org/2000/svg" viewBox="0 0 335 207.52">
  <defs>
    <style>
      .cls-1 {
        fill: #fff;
        stroke-width: 0px;
      }
    </style>
  </defs>
  <g id="Layer_2-2" data-name="Layer 2">
    <path class="cls-1" d="m17.5,50v-9.01s40-3.49,55-35.99c0,0,0-2.5,2.5-2.5s5,2.5,5,2.5c0,0,25,32.5,35,32.5h18c3.02,0,5.94-.96,8.38-2.75,6.63-4.85,20.32-15.57,29.65-27.77.88-1.15,1.4-2.53,1.66-3.95s.87-3.03,2.3-3.03c2.5,0,5,2.5,5,5s20,35,42.5,35,20,0,20,0l.08,10H17.5Z"/>
    <path class="cls-1" d="m0,127.55v-10.16s30-3.38,43-32.38c0,0,1-5,3-5s4,5,4,5c0,0,19,23,29,25,6.83,1.37,13.19.87,16.54.41,1.55-.21,3.03-.75,4.36-1.58,5.93-3.7,23.1-15.83,27.1-22.83,0,0,2-3,4-3,0,0,3,1,4,3,.89,1.79,26,22.73,32.5,22.87s12.5,1.13,16.5-1.87,18-6,29-22c0,0,1.59-3,3-3,1,0,2,2,3,4s21,26,32,26c10.36,0,28.69-15.07,34.14-22.68.44-.61.79-1.29.95-2.02.2-.89.85-2.3,2.91-2.3,3,0,3,2,4,3,2.83,2.83,23,27,28,27h14v12.55H0Z"/>
    <path class="cls-1" d="m113.09,207.52v-9.01s40-3.49,55-35.99c0,0,0-2.5,2.5-2.5s5,2.5,5,2.5c0,0,25,32.5,35,32.5h18c3.02,0,5.94-.96,8.38-2.75,6.63-4.85,20.32-15.57,29.65-27.77.88-1.15,1.4-2.53,1.66-3.95s.87-3.03,2.3-3.03c2.5,0,5,2.5,5,5s20,35,42.5,35,4.91,0,4.91,0l.08,10H113.09Z"/>
  </g>
</svg>