<?xml version="1.0" encoding="UTF-8"?>
<!-- Do not edit this file with editors other than draw.io -->
<!DOCTYPE svg PUBLIC "-//W3C//DTD SVG 1.1//EN" "http://www.w3.org/Graphics/SVG/1.1/DTD/svg11.dtd">
<svg xmlns="http://www.w3.org/2000/svg" xmlns:xlink="http://www.w3.org/1999/xlink" version="1.1" width="239px" height="161px" viewBox="-0.5 -0.5 239 161" content="&lt;mxfile host=&quot;app.diagrams.net&quot; modified=&quot;2023-12-21T06:24:04.812Z&quot; agent=&quot;Mozilla/5.0 (Windows NT 10.0; Win64; x64) AppleWebKit/537.36 (KHTML, like Gecko) Chrome/120.0.0.0 Safari/537.36&quot; etag=&quot;k3vbITgwL2eHX-HaRpQv&quot; version=&quot;22.1.11&quot; type=&quot;device&quot;&gt;&#10;  &lt;diagram name=&quot;페이지-1&quot; id=&quot;6Z7lRM7jFoaaOAPk-vmO&quot;&gt;&#10;    &lt;mxGraphModel dx=&quot;683&quot; dy=&quot;368&quot; grid=&quot;1&quot; gridSize=&quot;10&quot; guides=&quot;1&quot; tooltips=&quot;1&quot; connect=&quot;1&quot; arrows=&quot;1&quot; fold=&quot;1&quot; page=&quot;1&quot; pageScale=&quot;1&quot; pageWidth=&quot;827&quot; pageHeight=&quot;1169&quot; math=&quot;0&quot; shadow=&quot;0&quot;&gt;&#10;      &lt;root&gt;&#10;        &lt;mxCell id=&quot;0&quot; /&gt;&#10;        &lt;mxCell id=&quot;1&quot; parent=&quot;0&quot; /&gt;&#10;        &lt;mxCell id=&quot;jsL4Xsr7o5wUzeSjzxpA-2&quot; value=&quot;&quot; style=&quot;verticalLabelPosition=bottom;verticalAlign=top;html=1;shape=mxgraph.basic.wave2;dy=0.3;fillColor=#FFFFFF;strokeColor=#FFFFFF;&quot; vertex=&quot;1&quot; parent=&quot;1&quot;&gt;&#10;          &lt;mxGeometry x=&quot;244&quot; y=&quot;200&quot; width=&quot;100&quot; height=&quot;40&quot; as=&quot;geometry&quot; /&gt;&#10;        &lt;/mxCell&gt;&#10;        &lt;mxCell id=&quot;jsL4Xsr7o5wUzeSjzxpA-3&quot; value=&quot;&quot; style=&quot;verticalLabelPosition=bottom;verticalAlign=top;html=1;shape=mxgraph.basic.rect;fillColor2=none;strokeWidth=1;size=20;indent=5;fillColor=#FFFFFF;strokeColor=#FFFFFF;&quot; vertex=&quot;1&quot; parent=&quot;1&quot;&gt;&#10;          &lt;mxGeometry x=&quot;244&quot; y=&quot;220&quot; width=&quot;100&quot; height=&quot;20&quot; as=&quot;geometry&quot; /&gt;&#10;        &lt;/mxCell&gt;&#10;        &lt;mxCell id=&quot;jsL4Xsr7o5wUzeSjzxpA-4&quot; value=&quot;&quot; style=&quot;verticalLabelPosition=bottom;verticalAlign=top;html=1;shape=mxgraph.basic.wave2;dy=0.3;fillColor=#FFFFFF;strokeColor=#FFFFFF;&quot; vertex=&quot;1&quot; parent=&quot;1&quot;&gt;&#10;          &lt;mxGeometry x=&quot;244&quot; y=&quot;260&quot; width=&quot;100&quot; height=&quot;40&quot; as=&quot;geometry&quot; /&gt;&#10;        &lt;/mxCell&gt;&#10;        &lt;mxCell id=&quot;jsL4Xsr7o5wUzeSjzxpA-5&quot; value=&quot;&quot; style=&quot;verticalLabelPosition=bottom;verticalAlign=top;html=1;shape=mxgraph.basic.rect;fillColor2=none;strokeWidth=1;size=20;indent=5;fillColor=#FFFFFF;strokeColor=#FFFFFF;&quot; vertex=&quot;1&quot; parent=&quot;1&quot;&gt;&#10;          &lt;mxGeometry x=&quot;244&quot; y=&quot;280&quot; width=&quot;100&quot; height=&quot;20&quot; as=&quot;geometry&quot; /&gt;&#10;        &lt;/mxCell&gt;&#10;        &lt;mxCell id=&quot;jsL4Xsr7o5wUzeSjzxpA-6&quot; value=&quot;&quot; style=&quot;verticalLabelPosition=bottom;verticalAlign=top;html=1;shape=mxgraph.basic.wave2;dy=0.3;fillColor=#FFFFFF;strokeColor=#FFFFFF;&quot; vertex=&quot;1&quot; parent=&quot;1&quot;&gt;&#10;          &lt;mxGeometry x=&quot;314&quot; y=&quot;200&quot; width=&quot;100&quot; height=&quot;40&quot; as=&quot;geometry&quot; /&gt;&#10;        &lt;/mxCell&gt;&#10;        &lt;mxCell id=&quot;jsL4Xsr7o5wUzeSjzxpA-7&quot; value=&quot;&quot; style=&quot;verticalLabelPosition=bottom;verticalAlign=top;html=1;shape=mxgraph.basic.rect;fillColor2=none;strokeWidth=1;size=20;indent=5;fillColor=#FFFFFF;strokeColor=#FFFFFF;&quot; vertex=&quot;1&quot; parent=&quot;1&quot;&gt;&#10;          &lt;mxGeometry x=&quot;314&quot; y=&quot;220&quot; width=&quot;100&quot; height=&quot;20&quot; as=&quot;geometry&quot; /&gt;&#10;        &lt;/mxCell&gt;&#10;        &lt;mxCell id=&quot;jsL4Xsr7o5wUzeSjzxpA-12&quot; value=&quot;&quot; style=&quot;verticalLabelPosition=bottom;verticalAlign=top;html=1;shape=mxgraph.basic.wave2;dy=0.3;fillColor=#FFFFFF;strokeColor=#FFFFFF;&quot; vertex=&quot;1&quot; parent=&quot;1&quot;&gt;&#10;          &lt;mxGeometry x=&quot;314&quot; y=&quot;260&quot; width=&quot;100&quot; height=&quot;40&quot; as=&quot;geometry&quot; /&gt;&#10;        &lt;/mxCell&gt;&#10;        &lt;mxCell id=&quot;jsL4Xsr7o5wUzeSjzxpA-13&quot; value=&quot;&quot; style=&quot;verticalLabelPosition=bottom;verticalAlign=top;html=1;shape=mxgraph.basic.rect;fillColor2=none;strokeWidth=1;size=20;indent=5;fillColor=#FFFFFF;strokeColor=#FFFFFF;&quot; vertex=&quot;1&quot; parent=&quot;1&quot;&gt;&#10;          &lt;mxGeometry x=&quot;314&quot; y=&quot;280&quot; width=&quot;100&quot; height=&quot;20&quot; as=&quot;geometry&quot; /&gt;&#10;        &lt;/mxCell&gt;&#10;        &lt;mxCell id=&quot;jsL4Xsr7o5wUzeSjzxpA-14&quot; value=&quot;&quot; style=&quot;verticalLabelPosition=bottom;verticalAlign=top;html=1;shape=mxgraph.basic.wave2;dy=0.3;fillColor=#FFFFFF;strokeColor=#FFFFFF;&quot; vertex=&quot;1&quot; parent=&quot;1&quot;&gt;&#10;          &lt;mxGeometry x=&quot;382&quot; y=&quot;260&quot; width=&quot;100&quot; height=&quot;40&quot; as=&quot;geometry&quot; /&gt;&#10;        &lt;/mxCell&gt;&#10;        &lt;mxCell id=&quot;jsL4Xsr7o5wUzeSjzxpA-15&quot; value=&quot;&quot; style=&quot;verticalLabelPosition=bottom;verticalAlign=top;html=1;shape=mxgraph.basic.rect;fillColor2=none;strokeWidth=1;size=20;indent=5;fillColor=#FFFFFF;strokeColor=#FFFFFF;&quot; vertex=&quot;1&quot; parent=&quot;1&quot;&gt;&#10;          &lt;mxGeometry x=&quot;382&quot; y=&quot;280&quot; width=&quot;100&quot; height=&quot;20&quot; as=&quot;geometry&quot; /&gt;&#10;        &lt;/mxCell&gt;&#10;        &lt;mxCell id=&quot;jsL4Xsr7o5wUzeSjzxpA-16&quot; value=&quot;&quot; style=&quot;verticalLabelPosition=bottom;verticalAlign=top;html=1;shape=mxgraph.basic.wave2;dy=0.3;fillColor=#FFFFFF;strokeColor=#FFFFFF;&quot; vertex=&quot;1&quot; parent=&quot;1&quot;&gt;&#10;          &lt;mxGeometry x=&quot;312&quot; y=&quot;320&quot; width=&quot;100&quot; height=&quot;40&quot; as=&quot;geometry&quot; /&gt;&#10;        &lt;/mxCell&gt;&#10;        &lt;mxCell id=&quot;jsL4Xsr7o5wUzeSjzxpA-17&quot; value=&quot;&quot; style=&quot;verticalLabelPosition=bottom;verticalAlign=top;html=1;shape=mxgraph.basic.rect;fillColor2=none;strokeWidth=1;size=20;indent=5;fillColor=#FFFFFF;strokeColor=#FFFFFF;&quot; vertex=&quot;1&quot; parent=&quot;1&quot;&gt;&#10;          &lt;mxGeometry x=&quot;312&quot; y=&quot;340&quot; width=&quot;100&quot; height=&quot;20&quot; as=&quot;geometry&quot; /&gt;&#10;        &lt;/mxCell&gt;&#10;        &lt;mxCell id=&quot;jsL4Xsr7o5wUzeSjzxpA-18&quot; value=&quot;&quot; style=&quot;verticalLabelPosition=bottom;verticalAlign=top;html=1;shape=mxgraph.basic.wave2;dy=0.3;fillColor=#FFFFFF;strokeColor=#FFFFFF;&quot; vertex=&quot;1&quot; parent=&quot;1&quot;&gt;&#10;          &lt;mxGeometry x=&quot;382&quot; y=&quot;320&quot; width=&quot;100&quot; height=&quot;40&quot; as=&quot;geometry&quot; /&gt;&#10;        &lt;/mxCell&gt;&#10;        &lt;mxCell id=&quot;jsL4Xsr7o5wUzeSjzxpA-19&quot; value=&quot;&quot; style=&quot;verticalLabelPosition=bottom;verticalAlign=top;html=1;shape=mxgraph.basic.rect;fillColor2=none;strokeWidth=1;size=20;indent=5;fillColor=#FFFFFF;strokeColor=#FFFFFF;&quot; vertex=&quot;1&quot; parent=&quot;1&quot;&gt;&#10;          &lt;mxGeometry x=&quot;382&quot; y=&quot;340&quot; width=&quot;100&quot; height=&quot;20&quot; as=&quot;geometry&quot; /&gt;&#10;        &lt;/mxCell&gt;&#10;      &lt;/root&gt;&#10;    &lt;/mxGraphModel&gt;&#10;  &lt;/diagram&gt;&#10;&lt;/mxfile&gt;&#10;"><defs/><g><path d="M 0 6 Q 16.67 -4.8 33.33 6 Q 50 16.8 66.67 6 Q 83.33 -4.8 100 6 L 100 34 Q 83.33 23.2 66.67 34 Q 50 44.8 33.33 34 Q 16.67 23.2 0 34 Z" fill="#ffffff" stroke="#ffffff" stroke-miterlimit="10" pointer-events="all"/><path d="M 0 20 L 100 20 L 100 40 L 0 40 L 0 20 Z" fill="#ffffff" stroke="none" pointer-events="all"/><path d="M 0 20 L 0 40 L 0 40 L 100 40 L 100 20 L 0 20" fill="none" stroke="none" pointer-events="all"/><path d="M 0 20 L 100 20 L 100 40 L 0 40 L 0 20 Z" fill="none" stroke="#ffffff" stroke-miterlimit="10" pointer-events="all"/><path d="M 0 66 Q 16.67 55.2 33.33 66 Q 50 76.8 66.67 66 Q 83.33 55.2 100 66 L 100 94 Q 83.33 83.2 66.67 94 Q 50 104.8 33.33 94 Q 16.67 83.2 0 94 Z" fill="#ffffff" stroke="#ffffff" stroke-miterlimit="10" pointer-events="all"/><path d="M 0 80 L 100 80 L 100 100 L 0 100 L 0 80 Z" fill="#ffffff" stroke="none" pointer-events="all"/><path d="M 0 80 L 0 100 L 0 100 L 100 100 L 100 80 L 0 80" fill="none" stroke="none" pointer-events="all"/><path d="M 0 80 L 100 80 L 100 100 L 0 100 L 0 80 Z" fill="none" stroke="#ffffff" stroke-miterlimit="10" pointer-events="all"/><path d="M 70 6 Q 86.67 -4.8 103.33 6 Q 120 16.8 136.67 6 Q 153.33 -4.8 170 6 L 170 34 Q 153.33 23.2 136.67 34 Q 120 44.8 103.33 34 Q 86.67 23.2 70 34 Z" fill="#ffffff" stroke="#ffffff" stroke-miterlimit="10" pointer-events="all"/><path d="M 70 20 L 170 20 L 170 40 L 70 40 L 70 20 Z" fill="#ffffff" stroke="none" pointer-events="all"/><path d="M 70 20 L 70 40 L 70 40 L 170 40 L 170 20 L 70 20" fill="none" stroke="none" pointer-events="all"/><path d="M 70 20 L 170 20 L 170 40 L 70 40 L 70 20 Z" fill="none" stroke="#ffffff" stroke-miterlimit="10" pointer-events="all"/><path d="M 70 66 Q 86.67 55.2 103.33 66 Q 120 76.8 136.67 66 Q 153.33 55.2 170 66 L 170 94 Q 153.33 83.2 136.67 94 Q 120 104.8 103.33 94 Q 86.67 83.2 70 94 Z" fill="#ffffff" stroke="#ffffff" stroke-miterlimit="10" pointer-events="all"/><path d="M 70 80 L 170 80 L 170 100 L 70 100 L 70 80 Z" fill="#ffffff" stroke="none" pointer-events="all"/><path d="M 70 80 L 70 100 L 70 100 L 170 100 L 170 80 L 70 80" fill="none" stroke="none" pointer-events="all"/><path d="M 70 80 L 170 80 L 170 100 L 70 100 L 70 80 Z" fill="none" stroke="#ffffff" stroke-miterlimit="10" pointer-events="all"/><path d="M 138 66 Q 154.67 55.2 171.33 66 Q 188 76.8 204.67 66 Q 221.33 55.2 238 66 L 238 94 Q 221.33 83.2 204.67 94 Q 188 104.8 171.33 94 Q 154.67 83.2 138 94 Z" fill="#ffffff" stroke="#ffffff" stroke-miterlimit="10" pointer-events="all"/><path d="M 138 80 L 238 80 L 238 100 L 138 100 L 138 80 Z" fill="#ffffff" stroke="none" pointer-events="all"/><path d="M 138 80 L 138 100 L 138 100 L 238 100 L 238 80 L 138 80" fill="none" stroke="none" pointer-events="all"/><path d="M 138 80 L 238 80 L 238 100 L 138 100 L 138 80 Z" fill="none" stroke="#ffffff" stroke-miterlimit="10" pointer-events="all"/><path d="M 68 126 Q 84.67 115.2 101.33 126 Q 118 136.8 134.67 126 Q 151.33 115.2 168 126 L 168 154 Q 151.33 143.2 134.67 154 Q 118 164.8 101.33 154 Q 84.67 143.2 68 154 Z" fill="#ffffff" stroke="#ffffff" stroke-miterlimit="10" pointer-events="all"/><path d="M 68 140 L 168 140 L 168 160 L 68 160 L 68 140 Z" fill="#ffffff" stroke="none" pointer-events="all"/><path d="M 68 140 L 68 160 L 68 160 L 168 160 L 168 140 L 68 140" fill="none" stroke="none" pointer-events="all"/><path d="M 68 140 L 168 140 L 168 160 L 68 160 L 68 140 Z" fill="none" stroke="#ffffff" stroke-miterlimit="10" pointer-events="all"/><path d="M 138 126 Q 154.67 115.2 171.33 126 Q 188 136.8 204.67 126 Q 221.33 115.2 238 126 L 238 154 Q 221.33 143.2 204.67 154 Q 188 164.8 171.33 154 Q 154.67 143.2 138 154 Z" fill="#ffffff" stroke="#ffffff" stroke-miterlimit="10" pointer-events="all"/><path d="M 138 140 L 238 140 L 238 160 L 138 160 L 138 140 Z" fill="#ffffff" stroke="none" pointer-events="all"/><path d="M 138 140 L 138 160 L 138 160 L 238 160 L 238 140 L 138 140" fill="none" stroke="none" pointer-events="all"/><path d="M 138 140 L 238 140 L 238 160 L 138 160 L 138 140 Z" fill="none" stroke="#ffffff" stroke-miterlimit="10" pointer-events="all"/></g></svg>