<?xml version="1.0" encoding="UTF-8"?>
<svg id="Layer_2" data-name="Layer 2" xmlns="http://www.w3.org/2000/svg" viewBox="0 0 307.19 221.74">
  <defs>
    <style>
      .cls-1 {
        fill: none;
      }

      .cls-1, .cls-2, .cls-3 {
        stroke-width: 0px;
      }

      .cls-4 {
        fill: #0affc4;
        stroke: #fff46a;
        stroke-miterlimit: 10;
        stroke-width: .5px;
      }

      .cls-2 {
        fill: #fff;
      }

      .cls-3 {
        fill: #fff46a;
      }
    </style>
  </defs>
  <g id="Layer_2-2" data-name="Layer 2">
    <path class="cls-4" d="m68.42,27.64v-4.94s21.91-1.91,30.13-19.71c0,0,0-1.37,1.37-1.37s2.74,1.37,2.74,1.37c0,0,13.69,17.8,19.17,17.8h9.86c1.65,0,3.26-.53,4.59-1.5,3.63-2.65,11.13-8.53,16.24-15.21.48-.63.76-1.38.91-2.16s.48-1.66,1.26-1.66c1.37,0,2.74,1.37,2.74,2.74s10.96,19.17,23.28,19.17,10.96,0,10.96,0l.05,5.48h-123.29Z"/>
    <g id="Layer_0.psd" data-name="Layer 0.psd">
      <g>
        <path class="cls-2" d="m190.45,61.16c-2.92,6.04-12.17,6.32-15.41.26-1.74,2.89-4.3,4.38-7.61,4.39-3.33,0-5.92-1.45-7.69-4.42-1.76,2.93-4.32,4.42-7.65,4.42-3.33,0-5.92-1.45-7.67-4.41-1.77,2.93-4.33,4.42-7.66,4.41-3.33,0-5.9-1.47-7.55-4.2-.94.91-1.76,1.94-2.79,2.66-3.68,2.57-8.67,1.92-11.65-1.42-.36-.41-.65-.9-.9-1.39-.3-.58-.07-1.28.5-1.59.61-.33,1.16-.21,1.65.3.64.67,1.34,1.28,1.96,1.97,1.33,1.47,5.47,1.56,6.9,0,.25-.27.58-.45,1.04-.8-.55-.49-1.08-.89-1.53-1.37-2.1-2.24-2.1-5.29-.02-7.53.04-.04.07-.08.11-.11,3.15-3.2,6.3-6.4,9.45-9.6,3.19-3.24,6.38-6.47,9.56-9.71,1.62-1.65,3.2-3.33,4.82-4.97,2.34-2.35,4.98-2.49,7.54-.41,1.97,1.6,3.98,1.51,5.76-.27.75-.75,1.42-1.57,2.18-2.31.36-.35.37-.74.45-1.18.13-.64.4-1.32.8-1.83.64-.81,1.44-1.49,2.18-2.22,1.33-1.32,2.17-1.46,3.9-.62.76-1.1,1.51-2.21,2.3-3.3,1.57-2.18,3.02-2.31,4.9-.41,1.47,1.49,2.92,3,4.37,4.52,1.26,1.32,1.11,2.94-.33,4.06-.62.49-1.22,1.01-1.84,1.49-.61.47-1.23.91-1.85,1.36.86,1.67.72,2.52-.55,3.83-.68.7-1.33,1.43-2,2.15-.66.72-1.43,1.16-2.46,1.08-.24-.02-.55.13-.74.31-.81.77-1.6,1.56-2.38,2.36-1.7,1.74-1.78,3.86-.23,5.73,2.18,2.64,2.05,5.39-.36,7.81-1.3,1.3-2.61,2.58-3.89,3.9-1.55,1.6-3.08,3.22-4.62,4.85,1.33,3.57,5.1,5.5,8.73,3.7,1.2-.59,2.18-1.59,2.83-2.82.14-.26.26-.53.41-.77.81-1.29,2.56-1.34,3.26,0,.7,1.33,1.58,2.46,2.78,3.31,1.35.96,2.91,1.1,4.51.83,1.64-.27,2.78-1.33,3.82-2.53.27-.32.56-.68.91-.86.66-.33,1.24.01,1.76.91v.48Zm-24.66-34.43c-.82.85-1.56,1.65-2.35,2.4-.48.46-.98.92-1.54,1.25-2.52,1.48-5.23,1.23-7.48-.64-1.72-1.43-2.84-1.38-4.42.22-1.02,1.04-2,2.12-3.02,3.16-2.35,2.42-4.71,4.83-7.07,7.23-2.81,2.86-5.62,5.73-8.43,8.59-1.48,1.5-2.93,3.02-4.47,4.45-2.38,2.21-2.01,3.93.13,5.7.04.03.09.06.15.1.07-.08.13-.16.2-.24.97-1.28,2.53-1.19,3.33.18.13.23.24.48.38.7.98,1.57,2.23,2.79,4.25,3.33-.15-.57-.27-.97-.37-1.38-.41-1.72-.24-3.33,1.03-4.68.87-.93,1.73-1.86,2.62-2.77,3.31-3.38,6.63-6.74,9.96-10.11,1.23-1.25,2.49-2.48,3.72-3.73.18-.19.35-.39.5-.6,2.18-3.12,6.14-3.49,8.84-.82,1.84,1.82,1.85,2.88.06,4.66-.83.83-1.66,1.65-2.49,2.48-.16.16-.29.33-.46.53,1.16.6,2.24.88,3.38.15.75-.48,1.4-.43,1.85.11.49.58.43,1.4-.17,2.01-2.11,2.17-4.22,4.34-6.35,6.49-2.02,2.04-4.07,4.06-6.09,6.1-.42.42-.78.91-1.31,1.54,1.2,0,2.23.15,3.19-.06.55-.12,1-.77,1.45-1.23,2.73-2.76,5.43-5.54,8.16-8.29,1.68-1.7,3.39-3.39,5.08-5.08,1.58-1.58,1.65-2.9.24-4.59-2.19-2.64-2.17-6.07.09-8.65.65-.74,1.38-1.4,2.06-2.12.28-.3.51-.64.8-1.01l-5.44-5.39Zm-12.98,16.9c-1.37,1.45-2.66,2.86-4,4.22-3.44,3.51-6.9,7-10.35,10.5-1.37,1.39-1.38,3.27,0,4.7,1.5-.47,3.11-1.81,3.87-3.22.14-.26.26-.53.41-.77.83-1.36,2.53-1.32,3.37.06.51.84,1.07,1.66,1.69,2.62,3.95-4.03,7.73-7.89,11.55-11.79-2.43-.73-4.87-2.78-6.54-6.31Zm23.73-15.12c-2.33-2.41-4.7-4.85-7.05-7.27-.93.92-1.79,1.78-2.87,2.85,2.51,2.29,5.04,4.58,7.49,6.81.69-.68,1.55-1.53,2.43-2.4Zm4.37-6.58c-1.7-1.76-3.32-3.44-4.97-5.15-1,1.43-1.97,2.83-2.91,4.17,1.3,1.3,2.57,2.57,3.89,3.88,1.27-.92,2.6-1.89,4-2.9Zm-20.61,19.61c-.68-1.11-1.8-1.62-2.93-1.65-.75-.02-1.66.5-1.84,1.49-.26,1.45.43,2.58,1.26,3.65,1.19-1.18,2.32-2.3,3.51-3.49Z"/>
        <path class="cls-1" d="m148.38,38.63c-.39-.46-.62-.9-.99-1.12-.54-.34-1.08-.11-1.51.32-1.44,1.48-2.87,2.98-4.31,4.46-1.17,1.2-2.38,2.36-3.55,3.56-.69.7-.72,1.64-.11,2.18.61.55,1.52.35,2.14-.45.24-.31.48-.63.76-.9,2.08-2.09,4.19-4.16,6.25-6.27.48-.49.83-1.11,1.32-1.78Zm1.83-2.3c.38-.06.59-.02.68-.11.86-.84,1.79-1.63,2.51-2.59.2-.27-.1-1.12-.42-1.51-.42-.51-1.1-.39-1.56.06-.7.68-1.38,1.38-1.95,2.17-.21.29-.23.89-.08,1.24.14.35.6.56.82.75Z"/>
        <path class="cls-3" d="m152.82,43.63c1.67,3.53,4.11,5.58,6.54,6.31-3.82,3.9-7.6,7.76-11.55,11.79-.62-.95-1.18-1.77-1.69-2.62-.84-1.38-2.54-1.42-3.37-.06-.15.25-.27.52-.41.77-.76,1.4-2.37,2.74-3.87,3.22-1.38-1.43-1.37-3.31,0-4.7,3.46-3.49,6.91-6.99,10.35-10.5,1.33-1.36,2.62-2.77,4-4.22Z"/>
        <path class="cls-1" d="m176.55,28.51c-.88.87-1.74,1.72-2.43,2.4-2.46-2.23-4.98-4.53-7.49-6.81,1.08-1.07,1.94-1.93,2.87-2.85,2.34,2.42,4.71,4.86,7.05,7.27Z"/>
        <path class="cls-3" d="m180.92,21.93c-1.4,1.02-2.73,1.98-4,2.9-1.32-1.31-2.58-2.58-3.89-3.88.94-1.34,1.92-2.74,2.91-4.17,1.65,1.71,3.28,3.39,4.97,5.15Z"/>
        <path class="cls-3" d="m160.31,41.55c-1.19,1.18-2.32,2.31-3.51,3.49-.83-1.07-1.52-2.2-1.26-3.65.18-.99,1.09-1.51,1.84-1.49,1.13.03,2.25.54,2.93,1.65Z"/>
        <path class="cls-3" d="m148.38,38.63c-.49.67-.84,1.28-1.32,1.78-2.06,2.11-4.17,4.18-6.25,6.27-.28.28-.52.59-.76.9-.61.8-1.52.99-2.14.45-.61-.54-.58-1.48.11-2.18,1.17-1.19,2.38-2.36,3.55-3.56,1.45-1.48,2.87-2.98,4.31-4.46.42-.44.97-.66,1.51-.32.36.23.59.66.99,1.12Z"/>
        <path class="cls-3" d="m150.22,36.33c-.21-.18-.68-.4-.82-.75-.15-.35-.13-.95.08-1.24.57-.78,1.25-1.49,1.95-2.17.46-.45,1.14-.57,1.56-.06.32.39.62,1.24.42,1.51-.72.95-1.64,1.75-2.51,2.59-.09.09-.3.05-.68.11Z"/>
      </g>
    </g>
    <g>
      <path class="cls-4" d="m38.18,139.72c-.78.59-1.19.9-1.24.95-.34.34-.61.78-.8,1.32-1.07,2.78-1.71,10.43-1.9,22.95,1.75.39,2.63.98,2.63,1.75,0,.49-.22,1.05-.66,1.68-.49.2-1.19.49-2.12.88,0,2.14.24,5.29.73,9.43.05.24.29.98.73,2.19.34.98.51,1.66.51,2.05,0,.58-.22,1.17-.66,1.75-.44.58-.95.88-1.54.88-1.32,0-2.22-.98-2.7-2.92-.05-.24-.24-1.79-.58-4.64-.34-2.85-.51-4.69-.51-5.52,0-.88.07-1.7.22-2.48-3.03.05-6.6.46-10.7,1.24-3.52.68-7.04,1.38-10.56,2.11l-1.32,1.31c.05,1.84.08,3.71.08,5.6.2,2.86.69,4.71,1.46,5.53-.2.63-.5.95-.91.95s-.9.11-1.46.33c-.56.22-.99.33-1.28.33-.93,0-1.51-1.81-1.75-5.42-.1-2.26-.17-4.53-.22-6.79l-.51-.72h-.29c-.63,0-1.22-.18-1.75-.55-.54-.37-.8-.84-.8-1.43,0-.39.22-.94.66-1.64.44-.7.88-1.06,1.32-1.06h.8l.36-.07c.05-2.13.07-6.4.07-12.8,0-8.49.58-14.26,1.75-17.31.54-1.31,1.41-1.96,2.63-1.96.78,0,1.54.26,2.27.77.73.51,1.1,1.16,1.1,1.94,0,.29-.22.95-.67,1.97-.5,1.22-.77,1.93-.82,2.12-1.34,4.68-2.01,11.74-2.01,21.19,0,2.19.42,3.29,1.25,3.29.25,0,1.54-.24,3.89-.73,5.28-.98,8.8-1.46,10.56-1.46.44,0,1.19-.13,2.24-.4,1.05-.27,2.08-.4,3.08-.4s1.48-.68,1.43-2.05l-.15-6.43c-.1-4.14.1-8.28.58-12.42.73-6.53,2.05-9.79,3.95-9.79.97,0,1.85.51,2.63,1.54.63.93.97,1.93,1.02,3Z"/>
      <path class="cls-4" d="m64.85,157.26c-.41,2.14-.79,4.29-1.14,6.43-.46,2.29-.69,4.43-.69,6.43v22.87c0,3.26-.99,5.86-2.96,7.78-1.97,1.92-4.62,2.89-7.93,2.89-1.8,0-3.83-.49-6.07-1.46-2.58-1.07-4.36-2.41-5.33-4.02-.25-.44-.37-.88-.37-1.31,0-1.41.68-2.12,2.05-2.12.29,0,.61.1.95.29.83.88,1.66,1.73,2.48,2.56,1.66,1.51,3.75,2.26,6.28,2.26,3.22,0,5.36-1.12,6.43-3.36.63-1.41.95-3.97.95-7.67,0-.49-.1-1.46-.29-2.92-.2-1.22-.24-2.29-.15-3.22-1.36,1.27-2.34,2.07-2.92,2.41-1.07.68-2.24,1.02-3.51,1.02-3.31,0-5.82-1.29-7.53-3.87-1.51-2.24-2.27-5.09-2.27-8.55,0-6.58.1-12.13.29-16.66.19-1.56,1.05-2.34,2.56-2.34,1.85,0,2.68.32,2.48.95-.93,2.53-1.39,8.21-1.39,17.03,0,6.82,1.94,10.23,5.81,10.23,2.37,0,4.26-1.83,5.67-5.48,1.07-2.83,1.57-5.68,1.53-8.55v-8.33c.05-.83.11-1.87.18-3.14s.86-1.85,2.37-1.75c1.75.15,2.58.68,2.48,1.61Z"/>
      <path class="cls-4" d="m89.18,178.67c0,2.14-1.44,4.07-4.31,5.77-2.58,1.56-5.02,2.34-7.31,2.34-6.53,0-9.79-4.14-9.79-12.42,0-3.65.66-7.57,1.97-11.77,1.75-5.46,3.99-8.18,6.72-8.18,2.34,0,4.9,1.18,7.67,3.54,2.78,2.36,4.17,4.71,4.17,7.05,0,3.02-1.22,5.65-3.65,7.89-2.44,2.24-5.19,3.36-8.26,3.36-.29,0-.91-.24-1.86-.73s-1.6-.73-1.94-.73c-.63,0-.95.2-.95.58,0,5.6,1.85,8.4,5.55,8.4,1.9,0,3.65-.63,5.26-1.9.97-.73,2.05-1.88,3.22-3.43.93-1.22,1.54-1.83,1.83-1.83,1.12,0,1.68.68,1.68,2.05Zm-5.04-13.45c0-1.7-.49-3.3-1.46-4.79-.98-1.49-2.27-2.23-3.87-2.23-1.95,0-3.53,1.22-4.75,3.65-1.02,2.05-1.54,4.16-1.54,6.36,0,1.41.45,2.59,1.35,3.54.9.95,2.06,1.42,3.47,1.42,2,0,3.65-.85,4.97-2.56,1.22-1.56,1.83-3.36,1.83-5.41Z"/>
      <path class="cls-4" d="m115.63,171.5c0,4.19-.93,7.85-2.78,10.96-2.19,3.75-5.24,5.63-9.13,5.63s-6.89-1.53-8.84-4.6c-1.61-2.53-2.41-5.89-2.41-10.08s.92-8.21,2.78-12.2c2.34-4.92,5.31-7.38,8.92-7.38.92,0,2.24.54,3.95,1.61,5.02,3.12,7.53,8.48,7.53,16.08Zm-3.51-.07c0-3.12-.41-5.92-1.24-8.4-1.22-3.46-3.09-5.19-5.63-5.19-2.92,0-5.21,1.93-6.87,5.77-1.27,2.97-1.9,6.16-1.9,9.57,0,3.07.44,5.65,1.32,7.75,1.27,2.88,3.24,4.31,5.92,4.31,2.92,0,5.14-1.66,6.65-4.97,1.17-2.58,1.75-5.53,1.75-8.84Z"/>
      <path class="cls-4" d="m141.21,168c0,4.82-.71,8.87-2.12,12.13-1.9,4.53-4.9,6.8-8.99,6.8-2.68,0-5.02-1.24-7.02-3.73-.34.15-.51,1.66-.51,4.53,0,6.33.32,10.82.95,13.45.05.24.28.83.69,1.75.41.92.62,1.48.62,1.68,0,.78-.49,1.17-1.46,1.17-1.17,0-1.99-.17-2.45-.51-.46-.34-.87-1.46-1.21-3.36-.29-1.61-.44-2.88-.44-3.8v-18.56c0-1.7.09-3.99.26-6.87.17-3.36.28-5.65.32-6.87.05-1.31.05-3.02,0-5.12v-5.19c0-3.36.88-5.04,2.63-5.04.88,0,1.32.32,1.32.95,0,1.22-.1,3-.29,5.33-.2,2.34-.29,4.09-.29,5.26h.29c1.12-1.51,2.24-3.04,3.36-4.6,1.32-1.7,2.95-2.56,4.9-2.56,3.26,0,5.72,1.46,7.38,4.38,1.36,2.34,2.05,5.26,2.05,8.77Zm-3.65.29c0-2.58-.27-4.8-.8-6.65-.83-2.73-2.17-4.09-4.02-4.09-1.36,0-3.02,1.19-4.97,3.58-1.71,2.09-2.9,4.24-3.58,6.43-.54,1.66-.98,4.09-1.32,7.31-.2,2.34-.29,3.46-.29,3.36,0,.15.22.39.65.73.29.2.58.42.87.66.78,1.12,1.56,2.25,2.36,3.4s2,1.72,3.6,1.72c2.67,0,4.68-2.19,6.03-6.58.97-3.12,1.45-6.41,1.45-9.87Z"/>
      <path class="cls-4" d="m177.31,139.42c0,.83-.49,1.24-1.46,1.24-.29,0-.73-.02-1.32-.07-.58-.05-1.02-.07-1.32-.07-2.34,0-3.51.73-3.51,2.19,0,.39.04.95.11,1.68.07.73.11,1.29.11,1.68,0,8.32-.34,15.47-1.02,21.45-.63,5.4-1.49,9.46-2.56,12.18-1.95,4.72-4.9,7.08-8.84,7.08-3.36,0-6.43-1.97-9.21-5.92-2.53-3.6-3.8-7.16-3.8-10.67,0-3.99.66-5.99,1.99-5.99,2.13,0,3.2,1.85,3.2,5.55v4.97c0,1.8.78,3.63,2.34,5.48,1.56,1.85,3.24,2.78,5.04,2.78,5.46,0,8.18-8.09,8.18-24.26,0-11.25.02-16.47.07-15.64l-.15-.15c-1.36.05-3.31.78-5.85,2.19-2.53,1.41-3.9,2.12-4.09,2.12-.59,0-1.05-.3-1.39-.91-.34-.61-.51-1.21-.51-1.79,0-.83.54-1.49,1.61-1.97.88-.34,2.63-.88,5.26-1.61,2.19-.63,3.9-1.32,5.12-2.05l.15-.22c.19-1.51.85-2.26,1.97-2.26.29,0,.74.22,1.35.66.61.44,1.06.66,1.35.66.44,0,1.06-.11,1.86-.33.8-.22,1.43-.33,1.86-.33.73,0,1.49.23,2.26.69.78.46,1.17,1.01,1.17,1.64Z"/>
      <path class="cls-4" d="m198.21,188.02c0,.68-.54,1.02-1.61,1.02-1.17,0-1.88-.49-2.12-1.46-.05-.15-.07-1.1-.07-2.85,0-.49-.07-.88-.22-1.17-2.73,2-5.68,3-8.84,3-2.19,0-4.31-.61-6.36-1.83-2.34-1.36-3.51-3.07-3.51-5.12s1.39-3.95,4.17-5.85c2.53-1.75,4.87-2.63,7.01-2.63h7.23c.29-.29.44-.8.44-1.54,0-3.26-.27-5.72-.8-7.38-.88-2.78-2.61-4.16-5.19-4.16-1.85,0-3.56,1.17-5.12,3.51-1.41,2.15-2.12,4.19-2.12,6.14v.8c0,.39-.2.59-.58.59-.49,0-1.02-.29-1.61-.88-.59-.59-.88-1.1-.88-1.54,0-1.36.41-3.08,1.24-5.15.83-2.07,1.73-3.64,2.7-4.71,1.22-1.31,2.73-1.97,4.53-1.97,2.78,0,5.33.88,7.67,2.63,2.48,1.9,3.75,4.19,3.8,6.87l.22,23.68Zm-3.87-11.62c0-1.95-1.51-2.92-4.53-2.92-2.39,0-4.48.42-6.28,1.24-2.29,1.07-3.43,2.68-3.43,4.82,0,1.31.61,2.34,1.83,3.07,1.02.63,2.24.95,3.65.95,2.09,0,4.08-.68,5.96-2.05,1.88-1.36,2.81-3.07,2.81-5.11Z"/>
      <path class="cls-4" d="m224,178.67c0,2.14-1.44,4.07-4.31,5.77-2.58,1.56-5.02,2.34-7.31,2.34-6.53,0-9.79-4.14-9.79-12.42,0-3.65.66-7.57,1.97-11.77,1.75-5.46,3.99-8.18,6.72-8.18,2.34,0,4.9,1.18,7.67,3.54,2.78,2.36,4.17,4.71,4.17,7.05,0,3.02-1.22,5.65-3.65,7.89-2.44,2.24-5.19,3.36-8.26,3.36-.29,0-.91-.24-1.86-.73s-1.6-.73-1.94-.73c-.63,0-.95.2-.95.58,0,5.6,1.85,8.4,5.55,8.4,1.9,0,3.65-.63,5.26-1.9.97-.73,2.05-1.88,3.22-3.43.93-1.22,1.54-1.83,1.83-1.83,1.12,0,1.68.68,1.68,2.05Zm-5.04-13.45c0-1.7-.49-3.3-1.46-4.79-.98-1.49-2.27-2.23-3.87-2.23-1.95,0-3.53,1.22-4.75,3.65-1.02,2.05-1.54,4.16-1.54,6.36,0,1.41.45,2.59,1.35,3.54.9.95,2.06,1.42,3.47,1.42,2,0,3.65-.85,4.97-2.56,1.22-1.56,1.83-3.36,1.83-5.41Z"/>
      <path class="cls-4" d="m256.81,179.69c0,2.73-1.71,4.82-5.12,6.28-2.73,1.17-5.65,1.75-8.77,1.75-2.88,0-6.02-.59-9.43-1.75-4.38-1.51-6.58-3.39-6.58-5.63,0-1.22.58-1.83,1.75-1.83.92,0,2,.54,3.22,1.61,1.7,1.61,2.63,2.46,2.78,2.56,1.85,1.22,4.85,1.83,8.99,1.83,5.55,0,8.33-1.46,8.33-4.38,0-1.36-1.19-3.04-3.58-5.04-.39-.29-2.22-1.61-5.48-3.95-5.21-3.7-8.5-6.28-9.86-7.75-3.07-3.26-4.6-7.06-4.6-11.4,0-3.99,1.14-7.65,3.43-10.96,2.53-3.7,5.72-5.55,9.57-5.55,3.26,0,6.07,1.39,8.4,4.16,2.05,2.44,3.39,5.38,4.02,8.84.05,1.17.24,2.95.59,5.33l.58,2.63c0,3.9-.95,5.85-2.85,5.85-.49,0-.99-.28-1.5-.84-.51-.56-.77-1.08-.77-1.57,0-.68.13-1.68.4-3,.27-1.31.4-2.31.4-3,0-3.36-.53-6.33-1.59-8.92-1.4-3.51-3.53-5.26-6.38-5.26s-5.23,1.26-7.14,3.76-2.86,5.25-2.86,8.22c0,3.99,2.09,7.79,6.26,11.4,3.84,2.78,7.7,5.58,11.58,8.4,4.13,3.02,6.19,5.75,6.19,8.18Z"/>
      <path class="cls-4" d="m281.51,178.67c0,2.14-1.44,4.07-4.31,5.77-2.58,1.56-5.02,2.34-7.31,2.34-6.53,0-9.79-4.14-9.79-12.42,0-3.65.66-7.57,1.97-11.77,1.75-5.46,3.99-8.18,6.72-8.18,2.34,0,4.9,1.18,7.67,3.54,2.78,2.36,4.17,4.71,4.17,7.05,0,3.02-1.22,5.65-3.65,7.89-2.44,2.24-5.19,3.36-8.26,3.36-.29,0-.91-.24-1.86-.73s-1.6-.73-1.94-.73c-.63,0-.95.2-.95.58,0,5.6,1.85,8.4,5.55,8.4,1.9,0,3.65-.63,5.26-1.9.97-.73,2.05-1.88,3.22-3.43.93-1.22,1.54-1.83,1.83-1.83,1.12,0,1.68.68,1.68,2.05Zm-5.04-13.45c0-1.7-.49-3.3-1.46-4.79-.98-1.49-2.27-2.23-3.87-2.23-1.95,0-3.53,1.22-4.75,3.65-1.02,2.05-1.54,4.16-1.54,6.36,0,1.41.45,2.59,1.35,3.54.9.95,2.06,1.42,3.47,1.42,2,0,3.65-.85,4.97-2.56,1.22-1.56,1.83-3.36,1.83-5.41Z"/>
      <path class="cls-4" d="m306.94,188.02c0,.68-.54,1.02-1.61,1.02-1.17,0-1.87-.49-2.12-1.46-.05-.15-.07-1.1-.07-2.85,0-.49-.07-.88-.22-1.17-2.73,2-5.68,3-8.84,3-2.19,0-4.31-.61-6.36-1.83-2.34-1.36-3.51-3.07-3.51-5.12s1.39-3.95,4.17-5.85c2.53-1.75,4.87-2.63,7.01-2.63h7.24c.29-.29.44-.8.44-1.54,0-3.26-.27-5.72-.8-7.38-.88-2.78-2.61-4.16-5.19-4.16-1.85,0-3.56,1.17-5.12,3.51-1.41,2.15-2.12,4.19-2.12,6.14v.8c0,.39-.2.59-.58.59-.49,0-1.02-.29-1.61-.88-.59-.59-.88-1.1-.88-1.54,0-1.36.41-3.08,1.24-5.15.83-2.07,1.73-3.64,2.7-4.71,1.22-1.31,2.73-1.97,4.53-1.97,2.78,0,5.34.88,7.67,2.63,2.48,1.9,3.75,4.19,3.8,6.87l.22,23.68Zm-3.87-11.62c0-1.95-1.51-2.92-4.53-2.92-2.39,0-4.48.42-6.28,1.24-2.29,1.07-3.43,2.68-3.43,4.82,0,1.31.61,2.34,1.83,3.07,1.02.63,2.24.95,3.65.95,2.09,0,4.08-.68,5.96-2.05,1.87-1.36,2.81-3.07,2.81-5.11Z"/>
    </g>
    <g>
      <path class="cls-4" d="m13.09,215.57c-.22.3-.48.58-.79.85-.31.27-.66.5-1.07.71-.4.2-.85.36-1.34.48-.49.12-1.02.18-1.6.18-.97,0-1.86-.16-2.68-.47-.82-.31-1.53-.74-2.12-1.29-.59-.55-1.05-1.2-1.39-1.96-.33-.76-.5-1.59-.5-2.49s.17-1.73.51-2.49c.34-.76.81-1.41,1.41-1.96.6-.55,1.31-.98,2.12-1.29s1.7-.47,2.66-.47c.47,0,.93.05,1.39.14.45.09.88.22,1.28.38s.76.36,1.09.59c.33.23.6.49.82.78l-1.09.73c-.13-.19-.31-.38-.54-.57-.22-.19-.49-.36-.79-.5-.3-.14-.63-.26-.99-.35-.36-.09-.74-.13-1.15-.13-.83,0-1.58.14-2.24.42-.66.28-1.22.65-1.68,1.12-.46.47-.81,1.02-1.05,1.64s-.36,1.28-.36,1.96.12,1.34.37,1.96c.25.62.6,1.17,1.06,1.64.46.47,1.02.85,1.68,1.12.66.28,1.4.42,2.22.42.74,0,1.44-.14,2.1-.42s1.22-.72,1.67-1.34l1.01.6Z"/>
      <path class="cls-4" d="m17.67,217.49h-1.23v-12.62h1.23v12.62Z"/>
      <path class="cls-4" d="m27.46,212.43c0-.67-.19-1.18-.58-1.51s-.95-.5-1.69-.5c-.51,0-.98.08-1.41.25-.44.17-.8.39-1.11.67l-.69-.75c.35-.32.81-.59,1.39-.8.57-.21,1.22-.32,1.95-.32.46,0,.89.06,1.29.18.4.12.75.29,1.05.53.3.23.54.53.71.88.17.36.25.77.25,1.25v3.42c0,.3.01.61.04.93.02.32.06.59.11.82h-1.11c-.04-.19-.07-.39-.09-.62-.02-.22-.04-.44-.04-.65h-.04c-.39.52-.83.9-1.31,1.13-.49.23-1.08.34-1.77.34-.33,0-.66-.04-1.01-.13-.34-.08-.66-.22-.94-.41s-.52-.44-.71-.74c-.19-.3-.28-.67-.28-1.11,0-.6.17-1.08.5-1.43.33-.35.78-.61,1.33-.79s1.19-.28,1.91-.34c.72-.05,1.47-.08,2.24-.08v-.25Zm-.36,1.15c-.51,0-1.02.02-1.53.06-.51.04-.98.12-1.4.23-.42.12-.76.29-1.02.51-.27.22-.4.52-.4.88,0,.28.06.51.17.7.11.19.27.34.46.46.19.12.41.2.64.25.24.05.47.08.72.08.43,0,.82-.07,1.16-.21.34-.14.62-.33.85-.57.23-.24.41-.51.53-.83.12-.31.18-.64.18-.98v-.58h-.36Z"/>
      <path class="cls-4" d="m37.45,211.53c-.18-.32-.46-.59-.82-.79-.37-.21-.79-.31-1.26-.31-.22,0-.44.02-.65.07-.22.05-.41.12-.58.22-.17.1-.31.23-.41.38-.1.16-.15.34-.15.55,0,.37.16.65.49.84.33.2.84.36,1.54.49,1,.19,1.74.46,2.22.83s.72.85.72,1.46c0,.44-.09.82-.28,1.13-.19.31-.43.56-.73.75-.3.19-.64.33-1.02.42-.38.08-.76.13-1.15.13-.64,0-1.26-.12-1.87-.37-.6-.25-1.1-.63-1.49-1.15l.98-.67c.22.34.54.63.96.87.42.23.89.35,1.4.35.27,0,.52-.02.76-.07.24-.04.45-.12.63-.23.18-.11.33-.25.43-.43.11-.17.16-.39.16-.64,0-.41-.21-.72-.64-.93-.43-.21-1.05-.4-1.86-.58-.25-.06-.52-.13-.81-.21-.28-.08-.55-.21-.79-.37-.24-.16-.44-.36-.6-.61-.16-.24-.24-.55-.24-.92,0-.4.08-.74.25-1.03.17-.28.4-.52.68-.7.28-.18.61-.32.97-.41s.74-.13,1.12-.13c.59,0,1.17.12,1.72.37.56.25.97.59,1.25,1.03l-.94.65Z"/>
      <path class="cls-4" d="m46.64,211.53c-.18-.32-.46-.59-.82-.79-.37-.21-.79-.31-1.26-.31-.22,0-.44.02-.65.07-.22.05-.41.12-.58.22-.17.1-.31.23-.41.38-.1.16-.15.34-.15.55,0,.37.16.65.49.84.33.2.84.36,1.54.49,1,.19,1.74.46,2.22.83s.72.85.72,1.46c0,.44-.09.82-.28,1.13-.19.31-.43.56-.73.75-.3.19-.64.33-1.02.42-.38.08-.76.13-1.15.13-.64,0-1.26-.12-1.87-.37-.6-.25-1.1-.63-1.49-1.15l.98-.67c.22.34.54.63.96.87.42.23.89.35,1.4.35.27,0,.52-.02.76-.07.24-.04.45-.12.63-.23.18-.11.33-.25.43-.43.11-.17.16-.39.16-.64,0-.41-.21-.72-.64-.93-.43-.21-1.05-.4-1.86-.58-.25-.06-.52-.13-.81-.21-.28-.08-.55-.21-.79-.37-.24-.16-.44-.36-.6-.61-.16-.24-.24-.55-.24-.92,0-.4.08-.74.25-1.03.17-.28.4-.52.68-.7.28-.18.61-.32.97-.41s.74-.13,1.12-.13c.59,0,1.17.12,1.72.37.56.25.97.59,1.25,1.03l-.94.65Z"/>
      <path class="cls-4" d="m52.82,206.67c0,.23-.09.43-.27.58-.18.15-.38.23-.6.23s-.42-.08-.6-.23c-.18-.15-.27-.34-.27-.58s.09-.43.27-.58c.18-.15.38-.23.6-.23s.42.08.6.23c.18.15.27.34.27.58Zm-.25,10.81h-1.23v-7.81h1.23v7.81Z"/>
      <path class="cls-4" d="m60.58,210.63h-1.99v6.86h-1.23v-6.86h-1.78v-.95h1.78v-2.14c0-.89.24-1.59.71-2.1.47-.51,1.2-.77,2.18-.77.16,0,.33,0,.51.02s.35.05.51.09l-.22,1c-.13-.03-.27-.06-.4-.08-.13-.02-.28-.03-.45-.03-.33,0-.6.05-.81.15-.21.1-.38.24-.49.43-.11.18-.19.4-.24.64-.04.25-.06.51-.06.78v2h1.99v.95Z"/>
      <path class="cls-4" d="m66.4,216.27h.04l2.63-6.59h1.34l-4.22,9.83c-.25.6-.58,1.08-.97,1.44-.39.36-.96.54-1.7.54-.37,0-.74-.03-1.11-.1l.13-1.03c.29.09.59.13.91.13.42,0,.75-.12,1-.36s.45-.58.63-1.03l.69-1.64-3.63-7.79h1.38l2.88,6.59Z"/>
      <path class="cls-4" d="m82.06,216.27h.04l2.63-6.59h1.34l-4.22,9.83c-.25.6-.58,1.08-.97,1.44-.39.36-.96.54-1.7.54-.37,0-.74-.03-1.11-.1l.13-1.03c.29.09.59.13.91.13.42,0,.75-.12,1-.36s.45-.58.63-1.03l.69-1.64-3.63-7.79h1.38l2.88,6.59Z"/>
      <path class="cls-4" d="m97.56,213.58c0,.59-.11,1.13-.34,1.64-.22.5-.53.93-.93,1.3s-.88.65-1.43.86c-.56.21-1.17.31-1.83.31s-1.26-.1-1.81-.31c-.56-.21-1.03-.49-1.43-.86s-.71-.8-.93-1.3c-.22-.5-.34-1.05-.34-1.64s.11-1.13.34-1.64c.22-.5.54-.93.93-1.3s.88-.65,1.43-.86c.56-.21,1.16-.31,1.81-.31s1.28.1,1.83.31,1.03.49,1.43.86.71.8.93,1.3c.22.5.34,1.05.34,1.64Zm-1.31,0c0-.43-.08-.84-.23-1.23-.15-.38-.37-.72-.64-1-.28-.28-.62-.51-1.01-.68-.4-.17-.85-.25-1.34-.25s-.94.08-1.33.25c-.39.17-.73.39-1.01.68-.28.28-.49.62-.64,1s-.23.79-.23,1.23.08.84.23,1.23.37.72.64,1c.28.28.61.51,1.01.67.39.16.84.24,1.33.24s.94-.08,1.34-.24c.4-.16.74-.38,1.01-.67.28-.28.49-.62.64-1,.15-.38.23-.79.23-1.23Z"/>
      <path class="cls-4" d="m107.51,217.49c-.02-.21-.04-.44-.05-.7s-.02-.47-.02-.63h-.04c-.24.46-.63.83-1.18,1.11-.54.28-1.12.43-1.72.43-1.08,0-1.88-.29-2.42-.88-.54-.59-.81-1.37-.81-2.34v-4.79h1.23v4.32c0,.41.04.78.11,1.12.07.33.2.62.37.86.17.24.41.43.71.56.3.13.67.2,1.11.2.33,0,.64-.06.95-.18.31-.12.58-.31.83-.56.24-.25.43-.57.58-.95s.22-.84.22-1.36v-4.01h1.23v6.09c0,.21,0,.48.02.82.01.33.03.63.05.9h-1.18Z"/>
      <path class="cls-4" d="m113,210.58c-.01-.33-.03-.63-.05-.9h1.18c.02.21.04.44.05.7.01.26.02.47.02.63h.04c.24-.46.6-.83,1.09-1.11.48-.28,1.03-.43,1.63-.43.16,0,.3,0,.43.02.13.01.26.03.39.07l-.16,1.08c-.07-.02-.19-.04-.36-.07-.17-.02-.34-.03-.51-.03-.33,0-.64.06-.94.17-.3.11-.56.29-.79.52s-.41.54-.54.92c-.14.37-.21.82-.21,1.34v4h-1.23v-6.09c0-.21,0-.48-.02-.82Z"/>
      <path class="cls-4" d="m134.09,213.35v.25c0,.09,0,.18-.02.28h-7.03c.01.39.1.76.25,1.1.16.34.37.65.65.9.28.26.6.46.98.61.37.15.78.23,1.21.23.64,0,1.19-.14,1.66-.41.46-.27.82-.59,1.06-.94l.92.67c-.51.59-1.07,1.01-1.68,1.27-.61.26-1.27.38-1.97.38-.63,0-1.21-.1-1.75-.31-.54-.21-1-.49-1.39-.86-.39-.37-.69-.8-.92-1.3-.22-.5-.34-1.05-.34-1.64s.11-1.13.33-1.64c.22-.5.52-.93.91-1.3.39-.37.84-.65,1.36-.86.52-.21,1.08-.31,1.69-.31.66,0,1.25.1,1.76.31s.93.48,1.27.83c.34.35.59.76.77,1.23s.26.97.26,1.5Zm-1.25-.37c-.04-.73-.29-1.34-.77-1.83-.48-.48-1.16-.73-2.04-.73-.41,0-.79.07-1.14.21-.35.14-.66.33-.92.57-.27.24-.48.51-.63.82s-.25.63-.27.96h5.78Z"/>
      <path class="cls-4" d="m141.17,213.92h-4.06v-.95h4.06v.95Z"/>
      <path class="cls-4" d="m147.15,209.9c.5-.28,1.06-.43,1.68-.43.23,0,.47.02.72.07s.49.13.73.26c.24.13.45.3.65.51.2.21.37.48.52.82.29-.53.69-.94,1.19-1.23.5-.28,1.1-.43,1.79-.43,1.08,0,1.88.29,2.42.88.54.59.81,1.37.81,2.34v4.79h-1.23v-4.32c0-.82-.17-1.49-.5-1.99-.33-.5-.9-.75-1.7-.75-.45,0-.82.08-1.13.25-.31.17-.56.39-.74.66-.19.27-.32.58-.41.93-.08.34-.13.7-.13,1.07v4.16h-1.23v-4.56c0-.38-.03-.72-.09-1.03-.06-.31-.17-.58-.32-.79-.15-.22-.36-.38-.62-.5-.27-.12-.6-.18-1.02-.18-.29,0-.58.06-.88.18-.3.12-.56.31-.8.56-.24.25-.43.57-.57.95-.15.38-.22.84-.22,1.36v4.01h-1.23v-6.09c0-.21,0-.48-.02-.82-.01-.33-.03-.63-.05-.9h1.18c.02.21.04.44.05.7.01.26.02.47.02.63h.04c.24-.46.61-.83,1.11-1.11Z"/>
      <path class="cls-4" d="m167.31,212.43c0-.67-.19-1.18-.58-1.51s-.95-.5-1.69-.5c-.51,0-.98.08-1.41.25-.44.17-.8.39-1.11.67l-.69-.75c.35-.32.81-.59,1.39-.8.57-.21,1.22-.32,1.95-.32.46,0,.89.06,1.29.18.4.12.75.29,1.05.53.3.23.54.53.71.88.17.36.25.77.25,1.25v3.42c0,.3.01.61.04.93.02.32.06.59.11.82h-1.11c-.04-.19-.07-.39-.09-.62-.02-.22-.04-.44-.04-.65h-.04c-.39.52-.83.9-1.31,1.13-.49.23-1.08.34-1.77.34-.33,0-.66-.04-1.01-.13-.34-.08-.66-.22-.94-.41s-.52-.44-.71-.74c-.19-.3-.28-.67-.28-1.11,0-.6.17-1.08.5-1.43.33-.35.78-.61,1.33-.79s1.19-.28,1.91-.34c.72-.05,1.47-.08,2.24-.08v-.25Zm-.36,1.15c-.51,0-1.02.02-1.53.06-.51.04-.98.12-1.4.23-.42.12-.76.29-1.02.51-.27.22-.4.52-.4.88,0,.28.06.51.17.7.11.19.27.34.46.46.19.12.41.2.64.25.24.05.47.08.72.08.43,0,.82-.07,1.16-.21.34-.14.62-.33.85-.57.23-.24.41-.51.53-.83.12-.31.18-.64.18-.98v-.58h-.36Z"/>
      <path class="cls-4" d="m174.29,206.67c0,.23-.09.43-.27.58-.18.15-.38.23-.6.23s-.42-.08-.6-.23c-.18-.15-.27-.34-.27-.58s.09-.43.27-.58c.18-.15.38-.23.6-.23s.42.08.6.23c.18.15.27.34.27.58Zm-.25,10.81h-1.23v-7.81h1.23v7.81Z"/>
      <path class="cls-4" d="m179.73,217.49h-1.23v-12.62h1.23v12.62Z"/>
      <path class="cls-4" d="m193.44,210.63h-1.99v6.86h-1.23v-6.86h-1.78v-.95h1.78v-2.14c0-.89.24-1.59.71-2.1.47-.51,1.2-.77,2.18-.77.16,0,.33,0,.51.02s.35.05.51.09l-.22,1c-.13-.03-.27-.06-.4-.08-.13-.02-.28-.03-.45-.03-.33,0-.6.05-.81.15-.21.1-.38.24-.49.43-.11.18-.19.4-.24.64-.04.25-.06.51-.06.78v2h1.99v.95Zm2.97,6.86h-1.23v-12.62h1.23v12.62Z"/>
      <path class="cls-4" d="m209.28,213.58c0,.59-.11,1.13-.34,1.64-.22.5-.53.93-.93,1.3s-.88.65-1.43.86c-.56.21-1.17.31-1.83.31s-1.26-.1-1.81-.31c-.56-.21-1.03-.49-1.43-.86s-.71-.8-.93-1.3c-.22-.5-.34-1.05-.34-1.64s.11-1.13.34-1.64c.22-.5.54-.93.93-1.3s.88-.65,1.43-.86c.56-.21,1.16-.31,1.81-.31s1.28.1,1.83.31,1.03.49,1.43.86.71.8.93,1.3c.22.5.34,1.05.34,1.64Zm-1.31,0c0-.43-.08-.84-.23-1.23-.15-.38-.37-.72-.64-1-.28-.28-.62-.51-1.01-.68-.4-.17-.85-.25-1.34-.25s-.94.08-1.33.25c-.39.17-.73.39-1.01.68-.28.28-.49.62-.64,1s-.23.79-.23,1.23.08.84.23,1.23.37.72.64,1c.28.28.61.51,1.01.67.39.16.84.24,1.33.24s.94-.08,1.34-.24c.4-.16.74-.38,1.01-.67.28-.28.49-.62.64-1,.15-.38.23-.79.23-1.23Z"/>
      <path class="cls-4" d="m221.5,213.58c0,.59-.11,1.13-.34,1.64-.22.5-.53.93-.93,1.3s-.88.65-1.43.86c-.56.21-1.17.31-1.83.31s-1.26-.1-1.81-.31c-.56-.21-1.03-.49-1.43-.86s-.71-.8-.93-1.3c-.22-.5-.34-1.05-.34-1.64s.11-1.13.34-1.64c.22-.5.54-.93.93-1.3s.88-.65,1.43-.86c.56-.21,1.16-.31,1.81-.31s1.28.1,1.83.31,1.03.49,1.43.86.71.8.93,1.3c.22.5.34,1.05.34,1.64Zm-1.31,0c0-.43-.08-.84-.23-1.23-.15-.38-.37-.72-.64-1-.28-.28-.62-.51-1.01-.68-.4-.17-.85-.25-1.34-.25s-.94.08-1.33.25c-.39.17-.73.39-1.01.68-.28.28-.49.62-.64,1s-.23.79-.23,1.23.08.84.23,1.23.37.72.64,1c.28.28.61.51,1.01.67.39.16.84.24,1.33.24s.94-.08,1.34-.24c.4-.16.74-.38,1.01-.67.28-.28.49-.62.64-1,.15-.38.23-.79.23-1.23Z"/>
      <path class="cls-4" d="m232.26,216.17c-.36.5-.83.88-1.41,1.13-.58.26-1.18.38-1.79.38-.67,0-1.27-.11-1.8-.32-.54-.21-1-.5-1.38-.87-.38-.37-.68-.8-.89-1.3-.21-.5-.32-1.04-.32-1.62s.11-1.12.32-1.62c.21-.5.51-.93.89-1.3.38-.37.84-.66,1.38-.87.54-.21,1.14-.32,1.8-.32.62,0,1.21.13,1.79.39.58.26,1.05.65,1.41,1.16h.04v-6.16h1.23v12.62h-1.23v-1.32h-.04Zm-6.29-2.59c0,.43.07.84.22,1.23s.35.72.62,1,.61.51,1.01.67c.4.16.85.24,1.36.24.47,0,.91-.08,1.31-.24.4-.16.74-.38,1.03-.66.29-.28.52-.61.68-.99.16-.38.25-.8.25-1.24s-.08-.86-.25-1.24c-.16-.38-.39-.72-.68-1s-.63-.51-1.03-.67c-.4-.16-.83-.24-1.31-.24-.51,0-.96.08-1.36.25-.4.17-.73.39-1.01.68s-.48.62-.62,1-.22.79-.22,1.23Z"/>
      <path class="cls-4" d="m243.81,209.68l2.05,6.34h.04l2.28-6.34h1.2l2.32,6.34h.04l2.03-6.34h1.31l-2.68,7.81h-1.34l-2.27-6.33h-.04l-2.23,6.33h-1.34l-2.68-7.81h1.32Z"/>
      <path class="cls-4" d="m259.82,206.67c0,.23-.09.43-.27.58-.18.15-.38.23-.6.23s-.42-.08-.6-.23c-.18-.15-.27-.34-.27-.58s.09-.43.27-.58c.18-.15.38-.23.6-.23s.42.08.6.23c.18.15.27.34.27.58Zm-.25,10.81h-1.23v-7.81h1.23v7.81Z"/>
      <path class="cls-4" d="m267.81,210.63h-2.39v4.56c0,.29.03.53.09.72.06.19.15.34.26.44.11.11.25.18.41.22s.33.06.51.06c.17,0,.35-.02.53-.07.19-.04.37-.11.54-.18l.05.98c-.22.08-.44.14-.68.18-.24.04-.49.06-.77.06-.23,0-.47-.03-.73-.08s-.49-.16-.71-.32c-.22-.16-.4-.37-.53-.63-.14-.27-.21-.62-.21-1.05v-4.87h-1.76v-.95h1.76v-2.2h1.23v2.2h2.39v.95Z"/>
      <path class="cls-4" d="m272.18,210.96c.23-.46.61-.82,1.14-1.08.53-.27,1.1-.4,1.7-.4,1.08,0,1.88.29,2.42.88s.81,1.37.81,2.34v4.79h-1.23v-4.32c0-.41-.04-.78-.11-1.12-.07-.33-.2-.62-.37-.86s-.41-.43-.71-.56c-.3-.13-.67-.2-1.11-.2-.33,0-.64.06-.95.18-.31.12-.58.31-.82.56-.24.25-.44.57-.58.95s-.22.84-.22,1.36v4.01h-1.23v-12.62h1.23v6.09h.04Z"/>
      <path class="cls-4" d="m294.42,217.49c-.02-.21-.04-.44-.05-.7s-.02-.47-.02-.63h-.04c-.24.46-.63.83-1.18,1.11-.54.28-1.12.43-1.72.43-1.08,0-1.88-.29-2.42-.88-.54-.59-.81-1.37-.81-2.34v-4.79h1.23v4.32c0,.41.04.78.11,1.12.07.33.2.62.37.86.17.24.41.43.71.56.3.13.67.2,1.11.2.33,0,.64-.06.95-.18.31-.12.58-.31.83-.56.24-.25.43-.57.58-.95s.22-.84.22-1.36v-4.01h1.23v6.09c0,.21,0,.48.02.82.01.33.03.63.05.9h-1.18Z"/>
      <path class="cls-4" d="m304.45,211.53c-.18-.32-.46-.59-.82-.79-.37-.21-.79-.31-1.26-.31-.22,0-.44.02-.65.07-.22.05-.41.12-.58.22-.17.1-.31.23-.41.38-.1.16-.15.34-.15.55,0,.37.16.65.49.84.33.2.84.36,1.54.49,1,.19,1.74.46,2.22.83s.72.85.72,1.46c0,.44-.09.82-.28,1.13-.19.31-.43.56-.73.75-.3.19-.64.33-1.02.42-.38.08-.76.13-1.15.13-.64,0-1.26-.12-1.87-.37-.6-.25-1.1-.63-1.49-1.15l.98-.67c.22.34.54.63.96.87.42.23.89.35,1.4.35.27,0,.52-.02.76-.07.24-.04.45-.12.63-.23.18-.11.33-.25.43-.43.11-.17.16-.39.16-.64,0-.41-.21-.72-.64-.93-.43-.21-1.05-.4-1.86-.58-.25-.06-.52-.13-.81-.21-.28-.08-.55-.21-.79-.37-.24-.16-.44-.36-.6-.61-.16-.24-.24-.55-.24-.92,0-.4.08-.74.25-1.03.17-.28.4-.52.68-.7.28-.18.61-.32.97-.41s.74-.13,1.12-.13c.59,0,1.17.12,1.72.37.56.25.97.59,1.25,1.03l-.94.65Z"/>
    </g>
    <path class="cls-4" d="m58.84,70.11v-5.57s16.43-1.85,23.55-17.74c0,0,.55-2.74,1.64-2.74s2.19,2.74,2.19,2.74c0,0,10.41,12.6,15.88,13.69,3.74.75,7.23.47,9.06.23.85-.12,1.66-.41,2.39-.87,3.25-2.03,12.65-8.67,14.84-12.5,0,0,1.1-1.64,2.19-1.64,0,0,1.64.55,2.19,1.64.49.98,14.24,12.45,17.8,12.52s6.85.62,9.04-1.02,9.86-3.29,15.88-12.05c0,0,.87-1.64,1.64-1.64.55,0,1.1,1.1,1.64,2.19s11.5,14.24,17.53,14.24c5.67,0,15.72-8.25,18.7-12.42.24-.34.43-.7.52-1.11.11-.49.46-1.26,1.59-1.26,1.64,0,1.64,1.1,2.19,1.64,1.55,1.55,12.6,14.79,15.34,14.79h7.67v6.87H58.84Z"/>
    <path class="cls-4" d="m120.78,113.92v-4.94s21.91-1.91,30.13-19.71c0,0,0-1.37,1.37-1.37s2.74,1.37,2.74,1.37c0,0,13.69,17.8,19.17,17.8h9.86c1.65,0,3.26-.53,4.59-1.5,3.63-2.65,11.13-8.53,16.24-15.21.48-.63.76-1.38.91-2.16s.48-1.66,1.26-1.66c1.37,0,2.74,1.37,2.74,2.74s10.96,19.17,23.28,19.17,2.69,0,2.69,0l.05,5.48h-115.02Z"/>
  </g>
</svg>