<?xml version="1.0" encoding="UTF-8"?>
<svg id="Layer_2" data-name="Layer 2" xmlns="http://www.w3.org/2000/svg" xmlns:xlink="http://www.w3.org/1999/xlink" viewBox="0 0 183.72 113.93">
  <defs>
    <style>
      .cls-1 {
        fill: none;
      }

      .cls-1, .cls-2, .cls-3, .cls-4 {
        stroke-width: 0px;
      }

      .cls-5 {
        fill: #fff;
        stroke: #9bd400;
        stroke-miterlimit: 10;
        stroke-width: .25px;
      }

      .cls-2 {
        fill: url(#Earthtone_7);
      }

      .cls-4 {
        fill: #52b49b;
      }
    </style>
    <linearGradient id="Earthtone_7" data-name="Earthtone 7" x1="114.09" y1="23.06" x2="121.97" y2="23.06" gradientUnits="userSpaceOnUse">
      <stop offset="0" stop-color="#c4a873"/>
      <stop offset=".5" stop-color="#aa863b"/>
      <stop offset="1" stop-color="#8c6f2d"/>
    </linearGradient>
  </defs>
  <g id="Layer_2-2" data-name="Layer 2">
    <path class="cls-5" d="m9.72,27.51v-4.94s21.91-1.91,30.13-19.71c0,0,0-1.37,1.37-1.37s2.74,1.37,2.74,1.37c0,0,13.69,17.8,19.17,17.8h9.86c1.65,0,3.26-.53,4.59-1.5,3.63-2.65,11.13-8.53,16.24-15.21.48-.63.76-1.38.91-2.16s.48-1.66,1.26-1.66c1.37,0,2.74,1.37,2.74,2.74s10.96,19.17,23.28,19.17,10.96,0,10.96,0l.05,5.48H9.72Z"/>
    <g id="Layer_0.psd" data-name="Layer 0.psd">
      <g>
        <path class="cls-3" d="m131.5,63.41c-2.92,6.04-12.17,6.32-15.41.26-1.74,2.89-4.3,4.38-7.61,4.39-3.33,0-5.92-1.45-7.69-4.42-1.76,2.93-4.32,4.42-7.65,4.42-3.33,0-5.92-1.45-7.67-4.41-1.77,2.93-4.33,4.42-7.66,4.41-3.33,0-5.9-1.47-7.55-4.2-.94.91-1.76,1.94-2.79,2.66-3.68,2.57-8.67,1.92-11.65-1.42-.36-.41-.65-.9-.9-1.39-.3-.58-.07-1.28.5-1.59.61-.33,1.16-.21,1.65.3.64.67,1.34,1.28,1.96,1.97,1.33,1.47,5.47,1.56,6.9,0,.25-.27.58-.45,1.04-.8-.55-.49-1.08-.89-1.53-1.37-2.1-2.24-2.1-5.29-.02-7.53.04-.04.07-.08.11-.11,3.15-3.2,6.3-6.4,9.45-9.6,3.19-3.24,6.38-6.47,9.56-9.71,1.62-1.65,3.2-3.33,4.82-4.97,2.34-2.35,4.98-2.49,7.54-.41,1.97,1.6,3.98,1.51,5.76-.27.75-.75,1.42-1.57,2.18-2.31.36-.35.37-.74.45-1.18.13-.64.4-1.32.8-1.83.64-.81,1.44-1.49,2.18-2.22,1.33-1.32,2.17-1.46,3.9-.62.76-1.1,1.51-2.21,2.3-3.3,1.57-2.18,3.02-2.31,4.9-.41,1.47,1.49,2.92,3,4.37,4.52,1.26,1.32,1.11,2.94-.33,4.06-.62.49-1.22,1.01-1.84,1.49-.61.47-1.23.91-1.85,1.36.86,1.67.72,2.52-.55,3.83-.68.7-1.33,1.43-2,2.15-.66.72-1.43,1.16-2.46,1.08-.24-.02-.55.13-.74.31-.81.77-1.6,1.56-2.38,2.36-1.7,1.74-1.78,3.86-.23,5.73,2.18,2.64,2.05,5.39-.36,7.81-1.3,1.3-2.61,2.58-3.89,3.9-1.55,1.6-3.08,3.22-4.62,4.85,1.33,3.57,5.1,5.5,8.73,3.7,1.2-.59,2.18-1.59,2.83-2.82.14-.26.26-.53.41-.77.81-1.29,2.56-1.34,3.26,0,.7,1.33,1.58,2.46,2.78,3.31,1.35.96,2.91,1.1,4.51.83,1.64-.27,2.78-1.33,3.82-2.53.27-.32.56-.68.91-.86.66-.33,1.24.01,1.76.91v.48Zm-24.66-34.43c-.82.85-1.56,1.65-2.35,2.4-.48.46-.98.92-1.54,1.25-2.52,1.48-5.23,1.23-7.48-.64-1.72-1.43-2.84-1.38-4.42.22-1.02,1.04-2,2.12-3.02,3.16-2.35,2.42-4.71,4.83-7.07,7.23-2.81,2.86-5.62,5.73-8.43,8.59-1.48,1.5-2.93,3.02-4.47,4.45-2.38,2.21-2.01,3.93.13,5.7.04.03.09.06.15.1.07-.08.13-.16.2-.24.97-1.28,2.53-1.19,3.33.18.13.23.24.48.38.7.98,1.57,2.23,2.79,4.25,3.33-.15-.57-.27-.97-.37-1.38-.41-1.72-.24-3.33,1.03-4.68.87-.93,1.73-1.86,2.62-2.77,3.31-3.38,6.63-6.74,9.96-10.11,1.23-1.25,2.49-2.48,3.72-3.73.18-.19.35-.39.5-.6,2.18-3.12,6.14-3.49,8.84-.82,1.84,1.82,1.85,2.88.06,4.66-.83.83-1.66,1.65-2.49,2.48-.16.16-.29.33-.46.53,1.16.6,2.24.88,3.38.15.75-.48,1.4-.43,1.85.11.49.58.43,1.4-.17,2.01-2.11,2.17-4.22,4.34-6.35,6.49-2.02,2.04-4.07,4.06-6.09,6.1-.42.42-.78.91-1.31,1.54,1.2,0,2.23.15,3.19-.06.55-.12,1-.77,1.45-1.23,2.73-2.76,5.43-5.54,8.16-8.29,1.68-1.7,3.39-3.39,5.08-5.08,1.58-1.58,1.65-2.9.24-4.59-2.19-2.64-2.17-6.07.09-8.65.65-.74,1.38-1.4,2.06-2.12.28-.3.51-.64.8-1.01l-5.44-5.39Zm-12.98,16.9c-1.37,1.45-2.66,2.86-4,4.22-3.44,3.51-6.9,7-10.35,10.5-1.37,1.39-1.38,3.27,0,4.7,1.5-.47,3.11-1.81,3.87-3.22.14-.26.26-.53.41-.77.83-1.36,2.53-1.32,3.37.06.51.84,1.07,1.66,1.69,2.62,3.95-4.03,7.73-7.89,11.55-11.79-2.43-.73-4.87-2.78-6.54-6.31Zm23.73-15.12c-2.33-2.41-4.7-4.85-7.05-7.27-.93.92-1.79,1.78-2.87,2.85,2.51,2.29,5.04,4.58,7.49,6.81.69-.68,1.55-1.53,2.43-2.4Zm4.37-6.58c-1.7-1.76-3.32-3.44-4.97-5.15-1,1.43-1.97,2.83-2.91,4.17,1.3,1.3,2.57,2.57,3.89,3.88,1.27-.92,2.6-1.89,4-2.9Zm-20.61,19.61c-.68-1.11-1.8-1.62-2.93-1.65-.75-.02-1.66.5-1.84,1.49-.26,1.45.43,2.58,1.26,3.65,1.19-1.18,2.32-2.3,3.51-3.49Z"/>
        <path class="cls-1" d="m89.43,40.88c-.39-.46-.62-.9-.99-1.12-.54-.34-1.08-.11-1.51.32-1.44,1.48-2.87,2.98-4.31,4.46-1.17,1.2-2.38,2.36-3.55,3.56-.69.7-.72,1.64-.11,2.18.61.55,1.52.35,2.14-.45.24-.31.48-.63.76-.9,2.08-2.09,4.19-4.16,6.25-6.27.48-.49.83-1.11,1.32-1.78Zm1.83-2.3c.38-.06.59-.02.68-.11.86-.84,1.79-1.63,2.51-2.59.2-.27-.1-1.12-.42-1.51-.42-.51-1.1-.39-1.56.06-.7.68-1.38,1.38-1.95,2.17-.21.29-.23.89-.08,1.24.14.35.6.56.82.75Z"/>
        <path class="cls-4" d="m93.87,45.88c1.67,3.53,4.11,5.58,6.54,6.31-3.82,3.9-7.6,7.76-11.55,11.79-.62-.95-1.18-1.77-1.69-2.62-.84-1.38-2.54-1.42-3.37-.06-.15.25-.27.52-.41.77-.76,1.4-2.37,2.74-3.87,3.22-1.38-1.43-1.37-3.31,0-4.7,3.46-3.49,6.91-6.99,10.35-10.5,1.33-1.36,2.62-2.77,4-4.22Z"/>
        <path class="cls-4" d="m117.6,30.76c-.88.87-1.74,1.72-2.43,2.4-2.46-2.23-4.98-4.53-7.49-6.81,1.08-1.07,1.94-1.93,2.87-2.85,2.34,2.42,4.71,4.86,7.05,7.27Z"/>
        <path class="cls-2" d="m121.97,24.18c-1.4,1.02-2.73,1.98-4,2.9-1.32-1.31-2.58-2.58-3.89-3.88.94-1.34,1.92-2.74,2.91-4.17,1.65,1.71,3.28,3.39,4.97,5.15Z"/>
        <path class="cls-4" d="m101.36,43.79c-1.19,1.18-2.32,2.31-3.51,3.49-.83-1.07-1.52-2.2-1.26-3.65.18-.99,1.09-1.51,1.84-1.49,1.13.03,2.25.54,2.93,1.65Z"/>
        <path class="cls-4" d="m89.43,40.88c-.49.67-.84,1.28-1.32,1.78-2.06,2.11-4.17,4.18-6.25,6.27-.28.28-.52.59-.76.9-.61.8-1.52.99-2.14.45-.61-.54-.58-1.48.11-2.18,1.17-1.19,2.38-2.36,3.55-3.56,1.45-1.48,2.87-2.98,4.31-4.46.42-.44.97-.66,1.51-.32.36.23.59.66.99,1.12Z"/>
        <path class="cls-4" d="m91.27,38.57c-.21-.18-.68-.4-.82-.75-.15-.35-.13-.95.08-1.24.57-.78,1.25-1.49,1.95-2.17.46-.45,1.14-.57,1.56-.06.32.39.62,1.24.42,1.51-.72.95-1.64,1.75-2.51,2.59-.09.09-.3.05-.68.11Z"/>
      </g>
    </g>
    <path class="cls-5" d="m.12,69.98v-5.57s16.43-1.85,23.55-17.74c0,0,.55-2.74,1.64-2.74s2.19,2.74,2.19,2.74c0,0,10.41,12.6,15.88,13.69,3.74.75,7.23.47,9.06.23.85-.12,1.66-.41,2.39-.87,3.25-2.03,12.65-8.67,14.84-12.5,0,0,1.1-1.64,2.19-1.64,0,0,1.64.55,2.19,1.64.49.98,14.24,12.45,17.8,12.52s6.85.62,9.04-1.02,9.86-3.29,15.88-12.05c0,0,.87-1.64,1.64-1.64.55,0,1.1,1.1,1.64,2.19s11.5,14.24,17.53,14.24c5.67,0,15.72-8.25,18.7-12.42.24-.34.43-.7.52-1.11.11-.49.46-1.26,1.59-1.26,1.64,0,1.64,1.1,2.19,1.64,1.55,1.55,12.6,14.79,15.34,14.79h7.67v6.87H.12Z"/>
    <path class="cls-5" d="m62.08,113.8v-4.94s21.91-1.91,30.13-19.71c0,0,0-1.37,1.37-1.37s2.74,1.37,2.74,1.37c0,0,13.69,17.8,19.17,17.8h9.86c1.65,0,3.26-.53,4.59-1.5,3.63-2.65,11.13-8.53,16.24-15.21.48-.63.76-1.38.91-2.16s.48-1.66,1.26-1.66c1.37,0,2.74,1.37,2.74,2.74s10.96,19.17,23.28,19.17,2.69,0,2.69,0l.05,5.48H62.08Z"/>
  </g>
</svg>