<?xml version="1.0" encoding="UTF-8"?>
<svg id="Layer_2" data-name="Layer 2" xmlns="http://www.w3.org/2000/svg" viewBox="0 0 189.86 44.47">
  <defs>
    <style>
      .cls-1 {
        fill: #fff;
        stroke: #fff;
        stroke-miterlimit: 10;
      }
    </style>
  </defs>
  <g id="Layer_2-2" data-name="Layer 2">
    <g>
      <path class="cls-1" d="m23.85,3.29c-.48.36-.74.56-.77.58-.21.21-.38.48-.5.81-.66,1.71-1.05,6.42-1.17,14.13,1.08.24,1.62.6,1.62,1.08,0,.3-.14.65-.41,1.04-.3.12-.74.3-1.3.54,0,1.32.15,3.25.45,5.8.03.15.18.6.45,1.35.21.6.31,1.02.31,1.26,0,.36-.14.72-.4,1.08-.27.36-.59.54-.95.54-.81,0-1.37-.6-1.67-1.8-.03-.15-.15-1.1-.36-2.86-.21-1.75-.31-2.89-.31-3.4,0-.54.04-1.05.13-1.53-1.87.03-4.06.28-6.59.76-2.17.42-4.33.85-6.5,1.3l-.81.81c.03,1.14.05,2.29.05,3.45.13,1.76.43,2.9.9,3.41-.12.39-.31.58-.56.58s-.56.07-.9.2c-.35.13-.61.2-.79.2-.57,0-.93-1.11-1.08-3.34-.06-1.39-.11-2.79-.13-4.18l-.31-.45h-.18c-.39,0-.75-.11-1.08-.34-.33-.23-.49-.52-.49-.88,0-.24.13-.58.4-1.01.27-.43.54-.65.81-.65h.5l.22-.04c.03-1.31.05-3.94.05-7.88,0-5.23.36-8.78,1.08-10.66.33-.81.87-1.21,1.62-1.21.48,0,.95.16,1.4.47.45.32.68.71.68,1.19,0,.18-.14.58-.41,1.21-.31.75-.48,1.19-.51,1.31-.83,2.88-1.24,7.23-1.24,13.05,0,1.35.26,2.02.77,2.02.15,0,.95-.15,2.39-.45,3.25-.6,5.42-.9,6.5-.9.27,0,.73-.08,1.38-.25.65-.17,1.28-.25,1.9-.25s.91-.42.88-1.26l-.09-3.96c-.06-2.55.06-5.1.36-7.65.45-4.02,1.26-6.03,2.43-6.03.6,0,1.14.32,1.62.95.39.57.6,1.19.63,1.84Z"/>
      <path class="cls-1" d="m40.28,14.09c-.25,1.32-.48,2.64-.7,3.96-.28,1.41-.42,2.73-.42,3.96v14.08c0,2.01-.61,3.61-1.82,4.79-1.21,1.18-2.84,1.78-4.88,1.78-1.11,0-2.36-.3-3.74-.9-1.59-.66-2.69-1.49-3.28-2.48-.15-.27-.23-.54-.23-.81,0-.87.42-1.3,1.26-1.3.18,0,.38.06.58.18.51.54,1.02,1.06,1.53,1.58,1.02.93,2.31,1.39,3.87,1.39,1.98,0,3.3-.69,3.96-2.07.39-.87.58-2.45.58-4.73,0-.3-.06-.9-.18-1.8-.12-.75-.15-1.41-.09-1.98-.84.78-1.44,1.28-1.8,1.49-.66.42-1.38.63-2.16.63-2.04,0-3.59-.79-4.64-2.38-.93-1.38-1.4-3.13-1.4-5.26,0-4.05.06-7.47.18-10.26.12-.96.64-1.44,1.57-1.44,1.14,0,1.65.2,1.53.58-.57,1.56-.85,5.06-.85,10.49,0,4.2,1.19,6.3,3.58,6.3,1.46,0,2.63-1.12,3.49-3.38.66-1.74.97-3.5.94-5.27v-5.13c.03-.51.07-1.15.11-1.93s.53-1.14,1.46-1.08c1.08.09,1.59.42,1.53.99Z"/>
      <path class="cls-1" d="m55.26,27.28c0,1.32-.89,2.5-2.66,3.55-1.59.96-3.09,1.44-4.5,1.44-4.02,0-6.03-2.55-6.03-7.65,0-2.25.4-4.66,1.21-7.25,1.08-3.36,2.46-5.04,4.14-5.04,1.44,0,3.02.73,4.73,2.18,1.71,1.46,2.56,2.9,2.56,4.34,0,1.86-.75,3.48-2.25,4.86-1.5,1.38-3.19,2.07-5.08,2.07-.18,0-.56-.15-1.15-.45s-.98-.45-1.19-.45c-.39,0-.59.12-.59.36,0,3.45,1.14,5.18,3.42,5.18,1.17,0,2.25-.39,3.24-1.17.6-.45,1.26-1.16,1.98-2.12.57-.75.95-1.12,1.12-1.12.69,0,1.04.42,1.04,1.26Zm-3.1-8.28c0-1.05-.3-2.03-.9-2.95-.6-.92-1.4-1.37-2.39-1.37-1.2,0-2.18.75-2.92,2.25-.63,1.26-.95,2.56-.95,3.92,0,.87.28,1.6.83,2.18.56.58,1.27.88,2.14.88,1.23,0,2.25-.52,3.06-1.58.75-.96,1.12-2.07,1.12-3.33Z"/>
      <path class="cls-1" d="m71.55,22.87c0,2.58-.57,4.83-1.71,6.75-1.35,2.31-3.23,3.46-5.62,3.46s-4.25-.94-5.45-2.83c-.99-1.56-1.48-3.63-1.48-6.21s.57-5.05,1.71-7.51c1.44-3.03,3.27-4.54,5.49-4.54.57,0,1.38.33,2.43.99,3.09,1.92,4.64,5.22,4.64,9.9Zm-2.16-.04c0-1.92-.26-3.64-.77-5.17-.75-2.13-1.91-3.2-3.46-3.2-1.8,0-3.21,1.19-4.23,3.56-.78,1.83-1.17,3.79-1.17,5.89,0,1.89.27,3.48.81,4.77.78,1.77,1.99,2.65,3.65,2.65,1.8,0,3.16-1.02,4.09-3.06.72-1.59,1.08-3.4,1.08-5.45Z"/>
      <path class="cls-1" d="m87.3,20.71c0,2.97-.44,5.46-1.31,7.47-1.17,2.79-3.01,4.18-5.53,4.18-1.65,0-3.09-.76-4.32-2.29-.21.09-.31,1.02-.31,2.79,0,3.9.19,6.66.58,8.28.03.15.17.51.43,1.08.25.57.38.91.38,1.03,0,.48-.3.72-.9.72-.72,0-1.22-.11-1.51-.32-.29-.21-.53-.9-.74-2.07-.18-.99-.27-1.77-.27-2.34v-11.43c0-1.05.05-2.46.16-4.23.11-2.07.17-3.48.2-4.23.03-.81.03-1.86,0-3.15v-3.19c0-2.07.54-3.11,1.62-3.11.54,0,.81.2.81.58,0,.75-.06,1.85-.18,3.29-.12,1.44-.18,2.52-.18,3.24h.18c.69-.93,1.38-1.88,2.07-2.83.81-1.05,1.81-1.58,3.01-1.58,2.01,0,3.52.9,4.55,2.7.84,1.44,1.26,3.24,1.26,5.4Zm-2.25.18c0-1.59-.17-2.96-.5-4.1-.51-1.68-1.33-2.52-2.48-2.52-.84,0-1.86.74-3.06,2.21-1.05,1.29-1.79,2.61-2.21,3.96-.33,1.02-.6,2.52-.81,4.5-.12,1.44-.18,2.13-.18,2.07,0,.09.13.24.4.45.18.12.36.26.54.41.48.69.96,1.39,1.46,2.09s1.23,1.06,2.22,1.06c1.64,0,2.88-1.35,3.72-4.05.6-1.92.9-3.95.9-6.08Z"/>
      <path class="cls-1" d="m109.53,3.11c0,.51-.3.76-.9.76-.18,0-.45-.01-.81-.04-.36-.03-.63-.04-.81-.04-1.44,0-2.16.45-2.16,1.35,0,.24.02.58.07,1.03.04.45.07.79.07,1.03,0,5.12-.21,9.52-.63,13.21-.39,3.32-.92,5.83-1.58,7.5-1.2,2.91-3.02,4.36-5.44,4.36-2.07,0-3.96-1.21-5.67-3.65-1.56-2.22-2.34-4.41-2.34-6.57,0-2.46.41-3.69,1.23-3.69,1.31,0,1.97,1.14,1.97,3.42v3.06c0,1.11.48,2.24,1.44,3.38.96,1.14,1.99,1.71,3.1,1.71,3.36,0,5.04-4.98,5.04-14.94,0-6.93.01-10.14.04-9.63l-.09-.09c-.84.03-2.04.48-3.6,1.35-1.56.87-2.4,1.31-2.52,1.31-.36,0-.65-.19-.85-.56-.21-.38-.31-.74-.31-1.1,0-.51.33-.92.99-1.21.54-.21,1.62-.54,3.24-.99,1.35-.39,2.4-.81,3.15-1.26l.09-.14c.12-.93.52-1.39,1.21-1.39.18,0,.46.13.83.41.38.27.65.4.83.4.27,0,.65-.07,1.15-.2.5-.13.88-.2,1.15-.2.45,0,.91.14,1.39.43.48.29.72.62.72,1.01Z"/>
      <path class="cls-1" d="m122.4,33.04c0,.42-.33.63-.99.63-.72,0-1.16-.3-1.3-.9-.03-.09-.05-.67-.05-1.75,0-.3-.04-.54-.13-.72-1.68,1.23-3.5,1.85-5.44,1.85-1.35,0-2.66-.38-3.92-1.12-1.44-.84-2.16-1.89-2.16-3.15s.85-2.43,2.56-3.6c1.56-1.08,3-1.62,4.32-1.62h4.46c.18-.18.27-.5.27-.95,0-2.01-.17-3.52-.49-4.54-.54-1.71-1.61-2.56-3.2-2.56-1.14,0-2.19.72-3.15,2.16-.87,1.32-1.31,2.58-1.31,3.78v.5c0,.24-.12.36-.36.36-.3,0-.63-.18-.99-.54-.36-.36-.54-.68-.54-.95,0-.84.25-1.9.76-3.17.51-1.27,1.06-2.24,1.67-2.9.75-.81,1.68-1.21,2.79-1.21,1.71,0,3.29.54,4.73,1.62,1.53,1.17,2.31,2.58,2.34,4.23l.14,14.58Zm-2.39-7.15c0-1.2-.93-1.8-2.79-1.8-1.47,0-2.76.26-3.87.77-1.41.66-2.12,1.65-2.12,2.97,0,.81.38,1.44,1.12,1.89.63.39,1.38.58,2.25.58,1.29,0,2.51-.42,3.67-1.26,1.15-.84,1.73-1.89,1.73-3.15Z"/>
      <path class="cls-1" d="m138.29,27.28c0,1.32-.89,2.5-2.66,3.55-1.59.96-3.09,1.44-4.5,1.44-4.02,0-6.03-2.55-6.03-7.65,0-2.25.4-4.66,1.21-7.25,1.08-3.36,2.46-5.04,4.14-5.04,1.44,0,3.02.73,4.73,2.18,1.71,1.46,2.56,2.9,2.56,4.34,0,1.86-.75,3.48-2.25,4.86-1.5,1.38-3.19,2.07-5.08,2.07-.18,0-.56-.15-1.15-.45s-.98-.45-1.19-.45c-.39,0-.59.12-.59.36,0,3.45,1.14,5.18,3.42,5.18,1.17,0,2.25-.39,3.24-1.17.6-.45,1.26-1.16,1.98-2.12.57-.75.95-1.12,1.12-1.12.69,0,1.04.42,1.04,1.26Zm-3.1-8.28c0-1.05-.3-2.03-.9-2.95-.6-.92-1.4-1.37-2.39-1.37-1.2,0-2.18.75-2.92,2.25-.63,1.26-.95,2.56-.95,3.92,0,.87.28,1.6.83,2.18.56.58,1.27.88,2.14.88,1.23,0,2.25-.52,3.06-1.58.75-.96,1.12-2.07,1.12-3.33Z"/>
      <path class="cls-1" d="m158.49,27.91c0,1.68-1.05,2.97-3.15,3.87-1.68.72-3.48,1.08-5.4,1.08-1.77,0-3.71-.36-5.8-1.08-2.7-.93-4.05-2.08-4.05-3.46,0-.75.36-1.12,1.08-1.12.57,0,1.23.33,1.98.99,1.05.99,1.62,1.51,1.71,1.57,1.14.75,2.98,1.12,5.54,1.12,3.42,0,5.13-.9,5.13-2.7,0-.84-.74-1.88-2.21-3.11-.24-.18-1.37-.99-3.38-2.43-3.21-2.28-5.24-3.87-6.07-4.77-1.89-2.01-2.83-4.35-2.83-7.02,0-2.46.7-4.71,2.11-6.75,1.56-2.28,3.52-3.42,5.9-3.42,2.01,0,3.73.85,5.17,2.56,1.26,1.5,2.08,3.32,2.48,5.45.03.72.15,1.82.36,3.29l.36,1.62c0,2.4-.58,3.6-1.75,3.6-.3,0-.61-.17-.92-.52-.31-.34-.47-.67-.47-.97,0-.42.08-1.04.25-1.85.16-.81.25-1.42.25-1.84,0-2.07-.33-3.9-.98-5.49-.86-2.16-2.17-3.24-3.93-3.24s-3.22.77-4.4,2.32-1.76,3.23-1.76,5.06c0,2.46,1.29,4.8,3.86,7.02,2.36,1.71,4.74,3.44,7.13,5.17,2.54,1.86,3.81,3.54,3.81,5.04Z"/>
      <path class="cls-1" d="m173.7,27.28c0,1.32-.89,2.5-2.66,3.55-1.59.96-3.09,1.44-4.5,1.44-4.02,0-6.03-2.55-6.03-7.65,0-2.25.4-4.66,1.21-7.25,1.08-3.36,2.46-5.04,4.14-5.04,1.44,0,3.02.73,4.73,2.18,1.71,1.46,2.56,2.9,2.56,4.34,0,1.86-.75,3.48-2.25,4.86-1.5,1.38-3.19,2.07-5.08,2.07-.18,0-.56-.15-1.15-.45s-.98-.45-1.19-.45c-.39,0-.59.12-.59.36,0,3.45,1.14,5.18,3.42,5.18,1.17,0,2.25-.39,3.24-1.17.6-.45,1.26-1.16,1.98-2.12.57-.75.95-1.12,1.12-1.12.69,0,1.04.42,1.04,1.26Zm-3.1-8.28c0-1.05-.3-2.03-.9-2.95-.6-.92-1.4-1.37-2.39-1.37-1.2,0-2.18.75-2.92,2.25-.63,1.26-.95,2.56-.95,3.92,0,.87.28,1.6.83,2.18.56.58,1.27.88,2.14.88,1.23,0,2.25-.52,3.06-1.58.75-.96,1.12-2.07,1.12-3.33Z"/>
      <path class="cls-1" d="m189.36,33.04c0,.42-.33.63-.99.63-.72,0-1.15-.3-1.3-.9-.03-.09-.04-.67-.04-1.75,0-.3-.04-.54-.13-.72-1.68,1.23-3.5,1.85-5.44,1.85-1.35,0-2.66-.38-3.92-1.12-1.44-.84-2.16-1.89-2.16-3.15s.85-2.43,2.56-3.6c1.56-1.08,3-1.62,4.32-1.62h4.46c.18-.18.27-.5.27-.95,0-2.01-.17-3.52-.49-4.54-.54-1.71-1.61-2.56-3.2-2.56-1.14,0-2.19.72-3.15,2.16-.87,1.32-1.31,2.58-1.31,3.78v.5c0,.24-.12.36-.36.36-.3,0-.63-.18-.99-.54-.36-.36-.54-.68-.54-.95,0-.84.25-1.9.76-3.17.51-1.27,1.06-2.24,1.67-2.9.75-.81,1.68-1.21,2.79-1.21,1.71,0,3.29.54,4.73,1.62,1.53,1.17,2.31,2.58,2.34,4.23l.13,14.58Zm-2.38-7.15c0-1.2-.93-1.8-2.79-1.8-1.47,0-2.76.26-3.87.77-1.41.66-2.12,1.65-2.12,2.97,0,.81.38,1.44,1.12,1.89.63.39,1.38.58,2.25.58,1.29,0,2.51-.42,3.67-1.26,1.15-.84,1.73-1.89,1.73-3.15Z"/>
    </g>
  </g>
</svg>